<svg xmlns="http://www.w3.org/2000/svg" xmlns:xlink="http://www.w3.org/1999/xlink" width="21" height="15" viewBox="0 0 21 15"><defs><path id="19k0a" d="M288.36 29.99c-.16 0-.32 0-.41-.08-.4-.24-.48-.73-.24-1.14a7.7 7.7 0 0 0 0-7.51.88.88 0 0 1 .24-1.14c.41-.25.9-.08 1.15.24.41.66.73 1.39.89 2.21.25.81.33 1.63.33 2.44 0 .82-.08 1.64-.33 2.45-.24.74-.48 1.47-.89 2.21-.17.24-.49.32-.74.32zm-3.56-2.28c-.08 0-.25 0-.33-.08-.41-.17-.57-.66-.41-1.06a3.5 3.5 0 0 0 .33-1.56c0-.57-.08-1.06-.33-1.55-.16-.4 0-.89.41-1.06.41-.16.9 0 1.06.41.33.74.49 1.47.49 2.2 0 .74-.16 1.56-.41 2.21a.9.9 0 0 1-.81.49z"/><path id="19k0b" d="M279.7 17.59v15.74l-5.39-5.39H271v-4.97h3.31z"/></defs><g><g transform="translate(-270 -18)"><use fill="#fff" xlink:href="#19k0a"/></g><g transform="translate(-270 -18)"><use fill="#fff" fill-opacity="0" stroke="#fff" stroke-miterlimit="50" stroke-width="1.3" xlink:href="#19k0b"/></g></g></svg>