<svg width="17px" height="16px" viewBox="0 0 17 16" version="1.1" xmlns="http://www.w3.org/2000/svg" xmlns:xlink="http://www.w3.org/1999/xlink">
    <!-- Generator: Sketch 47.1 (45422) - http://www.bohemiancoding.com/sketch -->
    <defs></defs>
    <g id="PANIER" stroke="none" stroke-width="1" fill="none" fill-rule="evenodd" stroke-linecap="round" stroke-linejoin="round">
        <g id="200" transform="translate(-278.000000, -17.000000)" stroke="#FFFFFF">
            <g id="TOP" transform="translate(9.000000, 8.000000)">
                <g id="Actions" transform="translate(270.000000, 1.000000)">
                    <path d="M10.1456073,21 L10.1456073,22.3755955 C10.1456073,22.9278802 9.69789204,23.3755955 9.14560729,23.3755955 C8.8803908,23.3755955 8.62603689,23.2702386 8.43850051,23.0827022 L4.75946129,19.403663 L2.4449099,19.403663 C1.89262515,19.403663 1.4449099,18.9559478 1.4449099,18.403663 L1.4449099,15.4318359 C1.4449099,14.8795512 1.89262515,14.4318359 2.4449099,14.4318359 L3,14.4318359 M6.5,12 L8.43850051,10.7527967 C8.8290248,10.3622724 9.46218978,10.3622724 9.85271407,10.7527967 C10.0402505,10.9403331 10.1456073,11.194687 10.1456073,11.4599035 L10.1456073,15.5" id="Path-2" stroke-width="1.3"></path>
                    <path d="M0,9 L15,23" id="Path-3" stroke-width="1.5"></path>
                </g>
            </g>
        </g>
    </g>
</svg>